Coordinates
version=1
nRows=61
nColumns=4
inDegrees=yes

Units are S.I. units (second, meters, Newtons, ...)
Angles are in degrees.

endheader
time	joint_1	joint_2	transX
      0.00000000	     80.35397435	     40.13979678	      0.00000000
      0.01666667	     80.35394726	     40.13978509	      0.00000000
      0.03333333	     80.35391596	     40.13980345	      0.00000000
      0.05000000	     80.35389283	     40.13977799	      0.00000000
      0.06666667	     80.35381688	     40.13981001	      0.00000000
      0.08333333	     80.35379451	     40.13977375	      0.00000000
      0.10000000	     80.35367143	     40.13980985	      0.00000000
      0.11666667	     80.35365321	     40.13977085	      0.00000000
      0.13333333	     80.35349546	     40.13979833	      0.00000000
      0.15000000	     80.35348326	     40.13976776	      0.00000000
      0.16666667	     80.35332871	     40.13977713	      0.00000000
      0.18333333	     80.35331931	     40.13976212	      0.00000000
      0.20000000	     80.35320026	     40.13977159	      0.00000000
      0.21666667	     80.35319055	     40.13975636	      0.00000000
      0.23333333	     80.35307211	     40.13976709	      0.00000000
      0.25000000	     80.35306245	     40.13975090	      0.00000000
      0.26666667	     80.35294008	     40.13976049	      0.00000000
      0.28333333	     80.35293042	     40.13974519	      0.00000000
      0.30000000	     80.35282633	     40.13976001	      0.00000000
      0.31666667	     80.35282182	     40.13974469	      0.00000000
      0.33333333	     80.35276123	     40.13974418	      0.00000000
      0.35000000	     80.35274772	     40.13974018	      0.00000000
      0.36666667	     80.35273874	     40.13974604	      0.00000000
      0.38333333	     80.35273028	     40.13973738	      0.00000000
      0.40000000	     80.35270418	     40.13974851	      0.00000000
      0.41666667	     80.35269628	     40.13973571	      0.00000000
      0.43333333	     80.35265000	     40.13974825	      0.00000000
      0.45000000	     80.35264392	     40.13973456	      0.00000000
      0.46666667	     80.35258360	     40.13974222	      0.00000000
      0.48333333	     80.35257995	     40.13973315	      0.00000000
      0.50000000	     80.35252845	     40.13973299	      0.00000000
      0.51666667	     80.35253587	     40.13973713	      0.00000000
      0.53333333	     80.35255211	     40.13973013	      0.00000000
      0.55000000	     80.35255875	     40.13973942	      0.00000000
      0.56666667	     80.35259811	     40.13972893	      0.00000000
      0.58333333	     80.35260369	     40.13974083	      0.00000000
      0.60000000	     80.35266070	     40.13973393	      0.00000000
      0.61666667	     80.35266426	     40.13974234	      0.00000000
      0.63333333	     80.35271464	     40.13974240	      0.00000000
      0.65000000	     80.35272353	     40.13974657	      0.00000000
      0.66666667	     80.35273674	     40.13973984	      0.00000000
      0.68333333	     80.35274411	     40.13974904	      0.00000000
      0.70000000	     80.35277813	     40.13973790	      0.00000000
      0.71666667	     80.35278467	     40.13975051	      0.00000000
      0.73333333	     80.35283898	     40.13974073	      0.00000000
      0.75000000	     80.35284339	     40.13975177	      0.00000000
      0.76666667	     80.35290014	     40.13974966	      0.00000000
      0.78333333	     80.35290380	     40.13975430	      0.00000000
      0.80000000	     80.35294364	     40.13975020	      0.00000000
      0.81666667	     80.35294138	     40.13975376	      0.00000000
      0.83333333	     80.35293011	     40.13974753	      0.00000000
      0.85000000	     80.35291953	     40.13975536	      0.00000000
      0.86666667	     80.35290988	     40.13974545	      0.00000000
      0.88333333	     80.35288713	     40.13975707	      0.00000000
      0.90000000	     80.35287837	     40.13974411	      0.00000000
      0.91666667	     80.35284107	     40.13975730	      0.00000000
      0.93333333	     80.35283401	     40.13974320	      0.00000000
      0.95000000	     80.35278284	     40.13975412	      0.00000000
      0.96666667	     80.35277824	     40.13974230	      0.00000000
      0.98333333	     80.35272404	     40.13974602	      0.00000000
      1.00000000	     80.35279943	     40.13975442	      0.00000000
